# xmcd CD database file
#
# Track frame offsets:
#	150
#	19325
#	40337
#
# Disc length: 846 seconds
#
# Revision: 0
# Processed by: cddbd v1.5PL3 Copyright (c) Steve Scherf et al.
# Submitted via: CDex 1.51
#
DISCID=1f034c03
DTITLE=PIERROT - 神経がワレル暑い夜
DYEAR=2000
DGENRE=Rock
TTITLE0=神経がワレル暑い夜
TTITLE1=神経がワレタ寒い夜
TTITLE2=Haken Kreuz
EXTD=YEAR: 2000
EXTT0=
EXTT1=
EXTT2=
PLAYORDER=
